<svg xmlns="http://www.w3.org/2000/svg" width="23" height="24" viewBox="0 0 23 24">
    <path fill="#4A90E2" fill-rule="nonzero" d="M23.578 4.362c-.904.401-1.875.673-2.895.794A5.063 5.063 0 0 0 22.9 2.37c-.976.577-2.055.996-3.203 1.224a5.042 5.042 0 0 0-8.592 4.597A14.315 14.315 0 0 1 .712 2.92a5.004 5.004 0 0 0-.681 2.535c0 1.749.89 3.293 2.242 4.196a5.042 5.042 0 0 1-2.284-.633v.063a5.047 5.047 0 0 0 4.044 4.944 5.107 5.107 0 0 1-1.329.176 4.84 4.84 0 0 1-.949-.093 5.045 5.045 0 0 0 4.71 3.501 10.116 10.116 0 0 1-6.262 2.155c-.407 0-.808-.024-1.203-.069a14.252 14.252 0 0 0 7.728 2.269c9.275 0 14.345-7.683 14.345-14.345l-.017-.653a10.068 10.068 0 0 0 2.522-2.605z"/>
</svg>
